<svg width="212" height="31" viewBox="0 0 212 31" fill="none" xmlns="http://www.w3.org/2000/svg">
<path d="M20.9726 30L18.8242 23.1641H8.92182L6.77338 30H0.718697L10.5039 1.81641H17.4374L27.2421 30H20.9726ZM13.8046 7.20703L10.1914 18.75H17.5546L13.9414 7.20703H13.8046ZM29.7421 30V9.0625H35.4453V30H29.7421ZM34.7617 5.89844C34.1757 6.47135 33.4531 6.75781 32.5937 6.75781C31.7343 6.75781 31.0117 6.47135 30.4257 5.89844C29.8398 5.32552 29.5468 4.62891 29.5468 3.80859C29.5468 2.97526 29.8398 2.27865 30.4257 1.71875C31.0117 1.14583 31.7343 0.859375 32.5937 0.859375C33.4531 0.859375 34.1757 1.14583 34.7617 1.71875C35.3476 2.27865 35.6406 2.97526 35.6406 3.80859C35.6406 4.62891 35.3476 5.32552 34.7617 5.89844ZM39.2539 30V9.0625H44.7617V12.832H44.8789C45.2434 11.5039 45.8554 10.4883 46.7148 9.78516C47.5742 9.08203 48.6223 8.73047 49.8593 8.73047C50.4583 8.73047 50.9986 8.80208 51.4804 8.94531V13.9648C50.9466 13.7435 50.2565 13.6328 49.4101 13.6328C48.0039 13.6328 46.9101 14.043 46.1289 14.8633C45.3476 15.6836 44.957 16.8294 44.957 18.3008V30H39.2539ZM54.3124 1.81641H65.7773C68.6809 1.81641 71.0312 2.70182 72.8281 4.47266C74.638 6.24349 75.5429 8.57422 75.5429 11.4648C75.5429 14.3424 74.6119 16.6732 72.7499 18.457C70.888 20.2279 68.4661 21.1133 65.4843 21.1133H60.2109V30H54.3124V1.81641ZM60.2109 6.48438V16.5039H64.1953C65.888 16.5039 67.2031 16.0677 68.1406 15.1953C69.0781 14.3229 69.5468 13.0859 69.5468 11.4844C69.5468 9.88281 69.0781 8.65234 68.1406 7.79297C67.2161 6.92057 65.9075 6.48438 64.2148 6.48438H60.2109ZM95.0351 27.5586C93.1731 29.4857 90.6471 30.4492 87.457 30.4492C84.2669 30.4492 81.7408 29.4792 79.8789 27.5391C78.0169 25.599 77.0859 22.9232 77.0859 19.5117C77.0859 16.1393 78.0234 13.4831 79.8984 11.543C81.7864 9.58984 84.3059 8.61328 87.457 8.61328C90.621 8.61328 93.1406 9.58984 95.0156 11.543C96.8906 13.4831 97.8281 16.1393 97.8281 19.5117C97.8281 22.9362 96.8971 25.6185 95.0351 27.5586ZM87.457 26.0938C88.8632 26.0938 89.9765 25.5208 90.7968 24.375C91.6171 23.2292 92.0273 21.6146 92.0273 19.5312C92.0273 17.474 91.6171 15.8659 90.7968 14.707C89.9765 13.5482 88.8632 12.9688 87.457 12.9688C86.0507 12.9688 84.9309 13.5482 84.0976 14.707C83.2773 15.8659 82.8671 17.474 82.8671 19.5312C82.8671 21.6146 83.2773 23.2292 84.0976 24.375C84.9179 25.5208 86.0377 26.0938 87.457 26.0938ZM108.551 30.332C105.934 30.332 103.857 29.362 102.32 27.4219C100.784 25.4818 100.016 22.8385 100.016 19.4922C100.016 16.1719 100.784 13.5482 102.32 11.6211C103.87 9.69401 105.96 8.73047 108.59 8.73047C110.074 8.73047 111.376 9.08854 112.496 9.80469C113.629 10.5208 114.456 11.4714 114.977 12.6562H115.094V1.81641H120.797V30H115.172V26.4062H115.074C114.553 27.5911 113.713 28.5417 112.555 29.2578C111.396 29.974 110.061 30.332 108.551 30.332ZM110.484 13.3008C109.052 13.3008 107.919 13.8607 107.086 14.9805C106.266 16.1003 105.855 17.6172 105.855 19.5312C105.855 21.4583 106.266 22.9753 107.086 24.082C107.919 25.1888 109.052 25.7422 110.484 25.7422C111.904 25.7422 113.03 25.1888 113.863 24.082C114.71 22.9622 115.133 21.4453 115.133 19.5312C115.133 17.6302 114.71 16.1198 113.863 15C113.03 13.8672 111.904 13.3008 110.484 13.3008ZM124.254 15.2148C124.254 13.2227 125.055 11.6276 126.656 10.4297C128.258 9.21875 130.4 8.61328 133.082 8.61328C135.699 8.61328 137.802 9.22526 139.391 10.4492C140.979 11.6732 141.793 13.3008 141.832 15.332H136.578C136.513 14.4857 136.161 13.8216 135.523 13.3398C134.898 12.8581 134.059 12.6172 133.004 12.6172C132.014 12.6172 131.22 12.8255 130.621 13.2422C130.035 13.6458 129.742 14.1862 129.742 14.8633C129.742 15.8789 130.654 16.6016 132.477 17.0312L136.48 17.8906C138.577 18.3594 140.081 19.043 140.992 19.9414C141.917 20.8268 142.379 22.0508 142.379 23.6133C142.379 25.6706 141.519 27.3242 139.801 28.5742C138.082 29.8242 135.836 30.4492 133.062 30.4492C130.302 30.4492 128.095 29.8372 126.441 28.6133C124.788 27.3893 123.883 25.7422 123.727 23.6719H129.293C129.436 24.5573 129.84 25.2409 130.504 25.7227C131.181 26.2044 132.086 26.4453 133.219 26.4453C134.299 26.4453 135.146 26.25 135.758 25.8594C136.383 25.4557 136.695 24.9089 136.695 24.2188C136.695 23.6849 136.5 23.2617 136.109 22.9492C135.719 22.6237 135.055 22.3503 134.117 22.1289L130.25 21.2695C126.253 20.3581 124.254 18.3398 124.254 15.2148ZM153.648 1.81641H165.113C168.017 1.81641 170.367 2.70182 172.164 4.47266C173.974 6.24349 174.879 8.57422 174.879 11.4648C174.879 14.3424 173.948 16.6732 172.086 18.457C170.224 20.2279 167.802 21.1133 164.82 21.1133H159.547V30H153.648V1.81641ZM159.547 6.48438V16.5039H163.531C165.224 16.5039 166.539 16.0677 167.477 15.1953C168.414 14.3229 168.883 13.0859 168.883 11.4844C168.883 9.88281 168.414 8.65234 167.477 7.79297C166.552 6.92057 165.243 6.48438 163.551 6.48438H159.547ZM177.887 30V9.0625H183.394V12.832H183.512C183.876 11.5039 184.488 10.4883 185.348 9.78516C186.207 9.08203 187.255 8.73047 188.492 8.73047C189.091 8.73047 189.631 8.80208 190.113 8.94531V13.9648C189.579 13.7435 188.889 13.6328 188.043 13.6328C186.637 13.6328 185.543 14.043 184.762 14.8633C183.98 15.6836 183.59 16.8294 183.59 18.3008V30H177.887ZM208.941 27.5586C207.079 29.4857 204.553 30.4492 201.363 30.4492C198.173 30.4492 195.647 29.4792 193.785 27.5391C191.923 25.599 190.992 22.9232 190.992 19.5117C190.992 16.1393 191.93 13.4831 193.805 11.543C195.693 9.58984 198.212 8.61328 201.363 8.61328C204.527 8.61328 207.047 9.58984 208.922 11.543C210.797 13.4831 211.734 16.1393 211.734 19.5117C211.734 22.9362 210.803 25.6185 208.941 27.5586ZM201.363 26.0938C202.769 26.0938 203.883 25.5208 204.703 24.375C205.523 23.2292 205.934 21.6146 205.934 19.5312C205.934 17.474 205.523 15.8659 204.703 14.707C203.883 13.5482 202.769 12.9688 201.363 12.9688C199.957 12.9688 198.837 13.5482 198.004 14.707C197.184 15.8659 196.773 17.474 196.773 19.5312C196.773 21.6146 197.184 23.2292 198.004 24.375C198.824 25.5208 199.944 26.0938 201.363 26.0938Z" fill="#F5F5F7"/>
</svg>
